P3
9 7
255
99 175 93 99 175 93 99 175 93 99 175 93 99 175 93 99 175 93 90 131 19 90 131 19 90 131 19 
99 175 93 99 175 93 99 175 93 99 175 93 90 131 19 90 131 19 90 131 19 90 131 19 90 131 19 
90 131 19 90 131 19 90 131 19 90 131 19 90 131 19 90 131 19 90 131 19 90 131 19 90 131 19 
90 131 19 90 131 19 90 131 19 90 131 19 90 131 19 90 131 19 90 131 19 90 131 19 90 131 19 
90 131 19 90 131 19 90 131 19 90 131 19 193 42 199 193 42 199 193 42 199 193 42 199 193 42 199 
18 197 44 18 197 44 18 197 44 18 197 44 18 197 44 18 197 44 193 42 199 193 42 199 193 42 199 
18 197 44 18 197 44 18 197 44 18 197 44 18 197 44 193 42 199 193 42 199 193 42 199 193 42 199 
